/* XPM */
static char *f572fdd333c14919858d722bfdd678b0iez3vA98MgSclMG5[] = {
/* columns rows colors chars-per-pixel */
"32 32 170 2 ",
"   c black",
".  c #020204",
"X  c #06060B",
"o  c #07070C",
"O  c #08080A",
"+  c #08080D",
"@  c #161401",
"#  c #161504",
"$  c #1F1E03",
"%  c #1F1E06",
"&  c #201F05",
"*  c #211F05",
"=  c #211F07",
"-  c #212006",
";  c #212008",
":  c #232108",
">  c #222109",
",  c #232109",
"<  c #232208",
"1  c #232209",
"2  c #242208",
"3  c #242309",
"4  c #25240B",
"5  c #25240C",
"6  c #27260C",
"7  c #38360C",
"8  c #39370D",
"9  c #3B390F",
"0  c #3C3A10",
"q  c #3D3B11",
"w  c #3F3C13",
"e  c #262628",
"r  c #25262B",
"t  c #26272B",
"y  c #27272B",
"u  c #282828",
"i  c gray16",
"p  c #2A2A2A",
"a  c gray17",
"s  c #28292D",
"d  c #2A2A2C",
"f  c #2A2A2D",
"g  c #2A2B2D",
"h  c #2B2B2D",
"j  c #2A2A2E",
"k  c #2D2D2D",
"l  c #383726",
"z  c #393826",
"x  c #3A3926",
"c  c #30302F",
"v  c #3D3C2A",
"b  c #2B2C30",
"n  c #2D2D30",
"m  c #37373C",
"M  c gray22",
"N  c #393939",
"B  c #39393C",
"V  c #3B3B3D",
"C  c #3B3C3D",
"Z  c #3B3C3F",
"A  c #3C3C3C",
"S  c #3C3C3E",
"D  c #3C3C3F",
"F  c #3D3D3F",
"G  c #413E16",
"H  c #413F16",
"J  c #58551B",
"K  c #474634",
"L  c #484735",
"P  c #4A4936",
"I  c #4C4B39",
"U  c #4D4B3A",
"Y  c #635F25",
"T  c #666228",
"R  c #676429",
"E  c #6A662C",
"W  c #777225",
"Q  c #777325",
"!  c #777326",
"~  c #787326",
"^  c #787425",
"/  c #797425",
"(  c #787426",
")  c #797426",
"_  c #797526",
"`  c #787427",
"'  c #7A7627",
"]  c #7B7627",
"[  c #7C7726",
"{  c #7D7826",
"}  c #7A7528",
"|  c #7A7628",
" . c #7C7828",
".. c #7E7928",
"X. c #7E7A28",
"o. c #7E792A",
"O. c #7E7A2A",
"+. c #3B3C41",
"@. c #3D3D40",
"#. c #3D3E40",
"$. c #3E3E40",
"%. c #3F3F42",
"&. c #424243",
"*. c #5B5C5F",
"=. c #5C5C5E",
"-. c #626263",
";. c #626363",
":. c #6C6B67",
">. c #6C6C67",
",. c #6D6D6E",
"<. c #6F6F70",
"1. c #6F6F71",
"2. c gray44",
"3. c #717171",
"4. c #747474",
"5. c #807B2A",
"6. c #817C2B",
"7. c #A6A038",
"8. c #A8A239",
"9. c #A9A239",
"0. c #AAA439",
"q. c #ABA53A",
"w. c #ACA53A",
"e. c #838383",
"r. c #858587",
"t. c gray53",
"y. c #868689",
"u. c #898989",
"i. c #89898B",
"p. c #8B8B8B",
"a. c #8E8E91",
"s. c #919192",
"d. c #939395",
"f. c #939396",
"g. c gray58",
"h. c #9C9B97",
"j. c #979799",
"k. c #989999",
"l. c gray60",
"z. c #9D9D98",
"x. c #A5A5A6",
"c. c #A5A5A7",
"v. c #A6A6A8",
"b. c #B7B7B8",
"n. c gray73",
"m. c #BBBBBB",
"M. c #B9BABC",
"N. c #C0C0C2",
"B. c #C0C1C2",
"V. c #C2C2C3",
"C. c #C4C4C5",
"Z. c #C5C5C6",
"A. c #C5C5C7",
"S. c #C6C6C7",
"D. c #C7C7C8",
"F. c #C8C8C9",
"G. c #C8C8CA",
"H. c #C9C9CA",
"J. c #CBCBCD",
"K. c #CBCCCE",
"L. c gray80",
"P. c #CDCDCD",
"I. c #D7D7D7",
"U. c #D8D8D8",
"Y. c #DADADA",
"T. c gainsboro",
"R. c #DDDDDD",
"E. c gray98",
"W. c #FBFBFB",
"Q. c #FEFEFE",
/* pixels */
"                                                                ",
"                                                                ",
"                                                                ",
"                                                                ",
"                                                                ",
"                                                                ",
"                                                                ",
"                                                                ",
"                7.7.7.7.                                        ",
"                ] ! ! ]                                         ",
"            w.5.q % % q 5.w.                                    ",
"            { E I +.Z U E {                                     ",
"        w.{ 8 K h.J.K.h.K 7 [ 0.9.7.7.7.7.7.7.7.7.7.7.7.7.7.    ",
"        5.E L *.x.P.P.x.*.K T ^ ] ! ! ! ! ! ! ! ! ! ! ] } o.    ",
"    7.] q U z.v.-.A A -.v.z.P % - 2 - , 2 2 - , , , , , 5 H o.7.",
"    7.! = m M.m.N . . N m.L.,.N A @.@.A @.@.V Z @.A A s o 5 } 7.",
"    7.! , n j.k.c . . k s.L.L.D.D.C.D.C.C.C.B.B.C.L.D.a.s , ! 7.",
"    7.` , y t.t.i . . i e.b.B.C.D.C.D.C.C.Y.W.E.I.Y.Q.D.@., ! 7.",
"    7.( , y y.u.i . . i t.k.*.N @.A +.+.A 4.R.Y.,.2.R.J.&.- ! 7.",
"    7. .w v >.,.&.i i &.<.:.z = - , , @ . s d.s.e e s.d.s , ! 7.",
"        6.R z Z 2.p.p.1.A l Y ] ] ( } J # o s k O O s s + - / 7.",
"        0.X.q z >.i.i.:.z 9 o.0.9.7.0.6.H 4 , , 6 6 4 , 5 K { 7.",
"            o.T v t t v T o.            o.] ( ( [ } ] ! } o.    ",
"            0.o.w = , w 6.0.            7.7.7.7.7.7.7.7.7.7.    ",
"                o.! ] ]                                         ",
"                7.7.7.7.                                        ",
"                                                                ",
"                                                                ",
"                                                                ",
"                                                                ",
"                                                                ",
"                                                                "
};
