/* XPM */
static char *_b395ce142264b9aeda2009476e605acCS95tRmCXx1z2wDc[] = {
/* columns rows colors chars-per-pixel */
"32 32 120 2 ",
"   c black",
".  c #030306",
"X  c #070807",
"o  c #060508",
"O  c #070809",
"+  c #090A09",
"@  c #0F120C",
"#  c #11150E",
"$  c #19100F",
"%  c #13190F",
"&  c #1D1311",
"*  c #161C11",
"=  c #221713",
"-  c #301E17",
";  c #311E18",
":  c #1C2514",
">  c #1D2815",
",  c #242215",
"<  c #212D17",
"1  c #2C2618",
"2  c #222E18",
"3  c #282818",
"4  c #3F271D",
"5  c #253319",
"6  c #28371A",
"7  c #2D3E1D",
"8  c #34391E",
"9  c #40271D",
"0  c #512F23",
"q  c #473221",
"w  c #4C3924",
"e  c #533224",
"r  c #5A3527",
"t  c #503F26",
"y  c #5B3828",
"u  c #613B2A",
"i  c #2F411E",
"p  c #31431F",
"a  c #324520",
"s  c #364C23",
"d  c #394F25",
"f  c #375123",
"g  c #3A5225",
"h  c #3E5827",
"j  c #3E5628",
"k  c #3F5828",
"l  c #434C25",
"z  c #494E27",
"x  c #4D4C29",
"c  c #554729",
"v  c #5F432B",
"b  c #574A2B",
"n  c #594F2C",
"m  c #405927",
"M  c #455428",
"N  c #4A5128",
"B  c #425D2A",
"V  c #4A5D2C",
"C  c #505C2D",
"Z  c #5E5B31",
"A  c #62442C",
"S  c #6A412D",
"D  c #654A2E",
"F  c #6B4A2F",
"G  c #6F4D31",
"H  c #6E4D31",
"J  c #6D4D31",
"K  c #6C4B30",
"L  c #704330",
"P  c #764631",
"I  c #734C32",
"U  c #724D32",
"Y  c #7D4A34",
"T  c #7D4B34",
"R  c #7E4A35",
"E  c #794C34",
"W  c #7C4C34",
"Q  c #7E4C35",
"!  c #7F4C35",
"~  c #7F4D35",
"^  c #665431",
"/  c #705133",
"(  c #725334",
")  c #745134",
"_  c #735434",
"`  c #45602B",
"'  c #45612B",
"]  c #46622C",
"[  c #46632C",
"{  c #47632D",
"}  c #47642C",
"|  c #47642D",
" . c #47672D",
".. c #48642D",
"X. c #48652D",
"o. c #4A642D",
"O. c #48662D",
"+. c #49662E",
"@. c #48682E",
"#. c #4B692F",
"$. c #496A2F",
"%. c #4B6A2F",
"&. c #4C6A2F",
"*. c #50622E",
"=. c #53622F",
"-. c #54602F",
";. c #4C6A30",
":. c #4C6B30",
">. c #4D6B30",
",. c #4D6C30",
"<. c #4D6D30",
"1. c #4E6D31",
"2. c #576231",
"3. c #576331",
"4. c #586331",
"5. c #804B35",
"6. c #804C35",
"7. c #804C36",
"8. c #804D36",
"9. c #814E36",
/* pixels */
"                                                                ",
"                                                                ",
"                        . . . . . . . . . .                     ",
"                        & & = = = = = = & &                     ",
"                    . $ 9 e y u y u u y e 4 $ .                 ",
"                    $ - r P T 9.9.9.~ ~ P y ; $                 ",
"        o o o . . $ 9 y L W 9.9.9.~ 9.~ ~ L r 4 & . . . o O     ",
"        o + @ % % 3 t F E 9.W 9.~ ~ ~ ~ ~ R P y 1 * * # O O     ",
"        o @ 5 a s j V Z / 6.6.9.5.7.T 9.9.7.R J z s a 5 @ .     ",
"        o # 5 s B @.;.4._ W I F F J J J J J J ^ 3.k s 5 @ O     ",
"            # > s B  .2._ I n z N N z N z N N N B s : @         ",
"            . # 8 M o.2./ F z d g g d g g g g s a 5 @ .         ",
"            . & q n -.C F A l d g g g g g g g a > @             ",
"            . = 0 D V V b b M g p p g h j g a 2 + o             ",
"            . & 0 v N j l M ` d : > d } +.d > @ O O             ",
"            . & 0 A x l g h O.m < < j &.1.m 2 # O O             ",
"            o & e u A c d j O.O.h j O.&.;.O.m 7 # o             ",
"            . & 9 r u A z j o.&.&.&.#.#.;.;.,.g * o             ",
"                $ ; e A z g ` &.;.&.#.#.;.;.;.g * o             ",
"                . $ 9 w l m } &.;.;.;.&.;.,.,.d * o             ",
"                    $ , p m } &.,.;.;.;.;.,.;.d * .             ",
"                    . # 7 m ` ` j g g g d m o.s * o             ",
"                    . # 7 g h s < * * * * 2 s a * .             ",
"                    o % 7 g p 5 @ . . o + : 6 5 # .             ",
"                    . % i a > @ X . . @ 5 6 : @ +               ",
"                  . o @ 5 5 @ .     . # 5 5 @ .                 ",
"                  . o + # @ X     . . + @ % +                   ",
"                    o o o .         o o . .                     ",
"                      . .             . .                       ",
"                                                                ",
"                                                                ",
"                                                                "
};
