/* XPM */
static char *_4d887dd0aba4c73bf8c1b89b76072e9Hd6RF2hailxuqfS0[] = {
/* columns rows colors chars-per-pixel */
"32 32 84 1 ",
"  c #4F3F46",
". c #503F47",
"X c #514047",
"o c #504047",
"O c #4F3F47",
"+ c #594448",
"@ c #6E4D4B",
"# c #78514C",
"$ c #77514C",
"% c #60474B",
"& c #5C454A",
"* c #544248",
"= c #524147",
"- c #574348",
"; c #614749",
": c #704E4B",
"> c #7F5653",
", c #735050",
"< c #574248",
"1 c #66494A",
"2 c #75504C",
"3 c #905F58",
"4 c #79524C",
"5 c #905E58",
"6 c #5F474B",
"7 c #594348",
"8 c #6D4D4B",
"9 c #78524C",
"0 c #8F5E57",
"q c #7E5653",
"w c #6D4C4B",
"e c #7F5654",
"r c #825751",
"t c #75514E",
"y c #5C4549",
"u c #664844",
"i c #604644",
"p c #554246",
"a c #5A4448",
"s c #56403F",
"d c #544041",
"f c #514045",
"g c #524044",
"h c #504046",
"j c #544148",
"k c #805754",
"l c #735150",
"z c #76514C",
"x c #78524D",
"c c #7B534E",
"v c #7C544F",
"b c #76504C",
"n c #845852",
"m c #885A55",
"M c #574347",
"N c #674948",
"B c #744F4A",
"V c #7A534D",
"C c #7D544F",
"Z c #815751",
"A c #8A5B56",
"S c #8F5E58",
"D c #614645",
"F c #564246",
"G c #544145",
"H c #5B4342",
"J c #6B4A46",
"K c #7F5650",
"L c #8A5B55",
"P c #895B55",
"I c #8A5C56",
"U c #8D5D57",
"Y c #554042",
"T c #524045",
"R c #614644",
"E c #76514D",
"W c #805651",
"Q c #514046",
"! c #574244",
"~ c #654844",
"^ c #564040",
"/ c #58403D",
"( c #57403D",
") c white",
/* pixels */
" .XoO+@##$$$$$$$$$$$$$$$$$$$$$$$",
"%&*=-;:#$$$$$$$$$$$$$$$$$$$$$$$$",
">,&<1:2$$$$$$$$$$$$$$$$$$$$$$$$$",
"3>%+@4#$$$$$$$$$$$$$$$$$$$$$$$$$",
"5>6789#$$$$$$$$$$$$$$$$$$$$$$$$$",
"0q67w##$$$$$$$$$$$$$$$$$$$$$$$$$",
"0q67w##$$$$$$$$$$$$$$$$$$$$$$$$$",
"0q67w##$$$$$$$$$$$$$$$$$$$$$$$$$",
"0q67w##$$$$$$$$$$$$$$$$$$$$$$$$$",
"5>67w##$$$$$$$$$$$$$$$$$$$$$$$$$",
"3e%7w##$$$$$$$$$$$$$$$$$$$$$$$$$",
"rty+8##$$$$$$$$$$$$$$$$$$$$$$$$$",
"uipa@##$$$$$$$$$$$$$$$$$$$$$$$$$",
"sdfa@##$$$$$$$$$$$$$$$$$$$$$$$$$",
"gfha@##$$$$$$$$$$$$$$$$$$$$$$$$$",
"o..a@##$$$$$$$$$$$$$$$$$$$$$$$$$",
"OO.a@##$$$$$$$$$$$$$$$$$$$$$$$$$",
"%&ja@##$$$$$$$$$$$$$$$$$$$$$$$$$",
"kl&+8##$$$$$$$$$$$$$$$$$$$$$$$$$",
"3>%7w##$$$$$$$$$$$$$$$$$$$$$$$$$",
"5>67w##$$$$$$$$$$$$$$$$$$$$$$$$$",
"0q67w##$$$$$$$$$$$$$$$$$$$$$$$$$",
"0q67w##$$$$$$$$$$$$$$$$$$$$$$$$$",
"0q67w##$$$$$$$$$$$$$$$$$$$$$$$$$",
"0q67w##$$$$$$$$$$$$$$$$$$$$$$$$z",
"5>6789$$$$$$$$$$$$$$$$$$$$$$$xcv",
"3e%+89$zzzzzzzzzzzzzzzzzzzzzbcnm",
"rtyMNBVCCCCCCCCCCCCCCCCCCCCCCZAS",
"uDFGHJKLLPPPPPPPPPPPPPPPPPPPPIUS",
"sYTTdREZZWWWWWWWWWWWWWWWWWWWWWWW",
"gTQXT!Ruuuuuuuuuuuuuuuuuuuuuu~~~",
"XXXXXT^/(((((((((((((((((((((((("
};
