/* XPM */
static char *_3b90289b42a41b1c3588c0615f1bb1aJuyIx0CGLJTSLqHm[] = {
/* columns rows colors chars-per-pixel */
"32 32 125 2 ",
"   c #435066",
".  c #3F4B5F",
"X  c #374153",
"o  c #333C4D",
"O  c #333C4E",
"+  c #374154",
"@  c #404B60",
"#  c #434F65",
"$  c #434F64",
"%  c #434E63",
"&  c #434D63",
"*  c #424E64",
"=  c #4A566E",
"-  c #596781",
";  c #616F8C",
":  c #596681",
">  c #49566D",
",  c #616F8B",
"<  c #606F8B",
"1  c #424E63",
"2  c #4E5B74",
"3  c #667593",
"4  c #7181A2",
"5  c #6E7E9E",
"6  c #6C7C9C",
"7  c #4D5A73",
"8  c #6D7D9E",
"9  c #7080A1",
"0  c #7182A2",
"q  c #6E7F9F",
"w  c #657595",
"e  c #60708F",
"r  c #617090",
"t  c #607090",
"y  c #4E5B73",
"u  c #7282A3",
"i  c #3E495D",
"p  c #475369",
"a  c #586680",
"s  c #5D6B87",
"d  c #54627E",
"f  c #505E7A",
"g  c #53617D",
"h  c #53617E",
"j  c #515E7A",
"k  c #505D79",
"l  c #4F5D79",
"z  c #4F5D78",
"x  c #586580",
"c  c #465269",
"v  c #54617D",
"b  c #5C6A87",
"n  c #374053",
"m  c #3A4357",
"M  c #3F495E",
"N  c #3D485D",
"B  c #3F4A60",
"V  c #3C465B",
"C  c #3E485D",
"Z  c #414B60",
"A  c #394356",
"S  c #424C61",
"D  c #424D62",
"F  c #424C62",
"G  c #61708C",
"H  c #606E8B",
"J  c #6B7B9B",
"K  c #7081A1",
"L  c #657492",
"P  c #4D5A72",
"I  c #6D7D9D",
"U  c #6F80A0",
"Y  c #7181A1",
"T  c #606F8F",
"R  c #606F8E",
"E  c #657494",
"W  c #5F6F8E",
"Q  c #647493",
"!  c #5A6988",
"~  c #5F6E8D",
"^  c #677797",
"/  c #61708D",
"(  c #4C5971",
")  c #596888",
"_  c #5E6D8D",
"`  c #677696",
"'  c #5A6989",
"]  c #5C6C8B",
"[  c #596784",
"{  c #4A566F",
"}  c #5A6A89",
"|  c #5B6A89",
" . c #5C6B8A",
".. c #556380",
"X. c #53627E",
"o. c #515F7B",
"O. c #505E79",
"+. c #4B5872",
"@. c #49566E",
"#. c #404A60",
"$. c #3C475B",
"%. c #3B4559",
"&. c #384255",
"*. c #3C475C",
"=. c #3D475C",
"-. c #46526A",
";. c #434D62",
":. c #424D63",
">. c #4A576F",
",. c #596785",
"<. c #3E495E",
"1. c #434E65",
"2. c #5E6E8D",
"3. c #616F8D",
"4. c #596887",
"5. c #667696",
"6. c #5C6B8B",
"7. c #5F6E8E",
"8. c #586784",
"9. c #54627F",
"0. c #54637F",
"q. c #47536B",
"w. c #48556D",
"e. c #445067",
"r. c white",
/* pixels */
"  . X o o O O O O O O O O o o + @ @ + o o O O O O O O O O O O O ",
"# $ % & % % % % % % % % % % & % $ $ % & % % % % % % % % % % & & ",
"* = - ; ; ; ; ; ; ; ; ; ; ; ; : > > : ; ; ; ; ; ; ; ; ; ; , < < ",
"1 2 3 4 5 6 6 6 6 6 6 6 6 5 4 3 7 7 3 4 5 6 6 6 6 6 6 6 6 8 9 0 ",
"* 2 3 q w e e r r r r r t w q 3 y y 3 q w e e r r r r r t w 8 u ",
"i p a s d f g h j k k l z d s x c c x s d f g h j k k l z v b , ",
"n m M @ N B c c B V V V V C Z M A A M @ N B c c B V V V V C @ S ",
"% & D F D D * * D D D D D D D D & & D F D D * * D D D D D D S S ",
"G ; ; ; ; : > > : G G ; ; ; , ; ; ; ; ; ; : > > : G G ; ; , < H ",
"J J J 8 K L P P L K 8 J J J J J J J J 8 K L P P L K 8 J J I U Y ",
"T R R E 8 L P P L 8 E R R T T T T R R E 8 L P P L 8 E W W Q 6 Y ",
"! ! ! ~ ^ / ( ( / ^ ~ ! ! ! ! ! ! ! ! ~ ^ / ( ( / ^ ~ ) ) _ ` J ",
"! ' ' ] W [ { { [ W ] } } | | } ' ' ' ] W [ { { [ W ] ' '  .~ T ",
"..X.o.O.O.+.* * +.f f O.O.O.O.o.d d o.O.O.+.* * +.f f O.O.O.k k ",
"@.c #.$.$.%.&.&.%.*.=.=.=.$.$.@ -.-.@ $.$.%.&.&.%.*.=.=.=.*.$.$.",
"* * D D D ;.& & ;.D D D D D D D * * D D D ;.& & ;.D D D D D D D ",
"1 = - G G ; G ; ; ; ; ; ; G G : > > : G G ; G ; ; ; ; ; ; ; , < ",
":.y L K 8 J J J J J J J J 8 K L P P L K 8 J J J J J J J J I U Y ",
":.y L 8 E R R T T T T R R E 8 L P P L 8 E R R T T T T R R Q 6 Y ",
"* P / ^ ~ ! ! ! ! ! ! ! ! ~ ^ / ( ( / ^ ~ ! ! ! ! ! ! ! ! _ ` J ",
"* >.,.W ] ' ' ' } | | } } ] W [ { { [ W ] ' ' ' } | | } }  .~ T ",
"<.1.+.O.O.o.d d o.O.O.O.O.f f +.* * +.O.O.o.d d o.O.O.O.O.O.k k ",
"n &.%.$.$.@ -.-.@ $.$.=.=.=.*.%.&.&.%.$.$.@ -.-.@ $.$.=.=.*.$.$.",
"% & ;.D D D * * D D D D D D D ;.& & ;.D D D * * D D D D D D D D ",
"G ; ; G G : > > : G G ; ; ; ; ; ; G ; G G : > > : G G ; ; ; , < ",
"J J J 8 K L P P L K 8 J J J J J J J J 8 K L P P L K 8 J J I U Y ",
"T R R E 8 L P P L 8 E R R T T T T R R E 8 L P P L 8 E W W Q 6 Y ",
"! ! ) 2.^ 3.( ( 3.^ 2.) ! ! ! ! ! ! ) 2.^ 3.( ( 3.^ 2.4.4._ 5.J ",
"! ! ! 6.7.8.@.@.8.7.6.! ! ! ! ! ! ! ! 6.7.8.@.@.8.7.6.! !  .2.T ",
"9.9.9.0.9.z q.q.z 9.0.9.9.9.9.9.9.9.9.0.9.z q.q.z 9.0.9.9.9.9.9.",
"w.w.w.w.w.q.e.e.q.w.w.w.w.w.w.w.w.w.w.w.w.q.e.e.q.w.w.w.w.w.w.w.",
"* * * * * * # # * * * * * * * * * * * * * * # # * * * * * * * * "
};
